<svg xmlns="http://www.w3.org/2000/svg" xmlns:xlink="http://www.w3.org/1999/xlink" width="1344" zoomAndPan="magnify" viewBox="0 0 1008 1295.99994" height="1728" preserveAspectRatio="xMidYMid meet" version="1.0"><defs><g/><clipPath id="077f449df1"><path d="M 268.265625 421.132812 L 702.507812 421.132812 L 702.507812 901 L 268.265625 901 Z M 268.265625 421.132812 " clip-rule="nonzero"/></clipPath><clipPath id="157c0e49a0"><path d="M 326.597656 564 L 606.792969 564 L 606.792969 922.097656 L 326.597656 922.097656 Z M 326.597656 564 " clip-rule="nonzero"/></clipPath><clipPath id="7289fe748b"><path d="M 311 545 L 614 545 L 614 922.097656 L 311 922.097656 Z M 311 545 " clip-rule="nonzero"/></clipPath><clipPath id="a55f71807b"><path d="M 130.632812 269.386719 L 888.132812 269.386719 L 888.132812 1026.886719 L 130.632812 1026.886719 Z M 130.632812 269.386719 " clip-rule="nonzero"/></clipPath></defs><g clip-path="url(#077f449df1)"><path fill="#1f2c56" d="M 657.441406 746.746094 C 654.382812 748.164062 651.496094 749.898438 648.761719 751.859375 C 621.480469 771.511719 611.421875 811.910156 615.085938 847.480469 C 684.335938 808.625 703.453125 740.152344 673.3125 741.503906 C 672.316406 741.566406 671.386719 741.726562 670.609375 742.015625 L 667.464844 732.882812 C 669.007812 732.371094 670.871094 731.984375 672.898438 731.886719 C 676.335938 731.757812 680.285156 732.402344 683.882812 734.523438 C 717.625 754.464844 687.96875 820.5625 616.53125 857.707031 C 618.269531 867.097656 620.96875 875.945312 624.628906 883.699219 C 626.878906 888.519531 629.515625 893.085938 632.535156 897.265625 L 627.332031 900.996094 C 624.082031 896.496094 621.257812 891.605469 618.816406 886.429688 C 615.277344 878.808594 612.546875 870.058594 610.714844 860.636719 C 564.410156 882.988281 501.785156 893.117188 428.257812 872.277344 C 207.691406 809.753906 219.449219 489.570312 437.191406 428.457031 C 451.460938 424.472656 466.367188 421.964844 481.726562 421.320312 C 496.253906 420.675781 511.128906 421.707031 526.265625 424.667969 C 535.136719 426.402344 542.398438 429.523438 548.152344 433.671875 C 549.175781 433.605469 550.238281 433.574219 551.269531 433.542969 C 710.914062 429.332031 736.457031 614.296875 663.960938 661.675781 C 664.058594 664.121094 662.742188 666.464844 660.425781 667.59375 L 646.609375 674.1875 C 644.167969 675.375 641.339844 674.796875 639.503906 672.996094 C 639.121094 673.765625 638.640625 674.441406 638.03125 675.054688 C 636.679688 676.40625 634.785156 677.242188 632.726562 677.242188 C 630.640625 677.242188 628.773438 676.375 627.390625 675.019531 C 626.6875 674.28125 626.105469 673.414062 625.722656 672.480469 L 606.375 672.257812 L 597.222656 672.320312 C 596.835938 672.320312 596.449219 672.289062 596.0625 672.257812 C 594.777344 672.578125 593.878906 673.445312 593.457031 674.539062 C 593.105469 675.40625 592.976562 676.40625 593.140625 677.4375 L 593.140625 677.464844 C 593.265625 678.527344 593.652344 679.558594 594.328125 680.457031 C 595.355469 681.875 597.058594 682.964844 599.5 683.222656 L 603.070312 677.5625 L 617.464844 683.289062 L 604.578125 688.050781 L 604.644531 688.273438 C 604.222656 688.339844 603.808594 688.402344 603.421875 688.464844 C 596.929688 689.402344 592.492188 687.019531 589.988281 683.609375 C 588.800781 681.96875 588.09375 680.039062 587.839844 678.140625 C 587.578125 676.214844 587.800781 674.28125 588.476562 672.546875 C 588.929688 671.421875 589.570312 670.421875 590.375 669.554688 C 589.570312 668.683594 588.929688 667.65625 588.511719 666.53125 C 587.839844 664.796875 587.609375 662.863281 587.867188 660.933594 C 588.128906 659.035156 588.863281 657.140625 590.050781 655.496094 C 592.558594 652.089844 597.027344 649.742188 603.484375 650.675781 C 603.90625 650.738281 604.289062 650.800781 604.703125 650.898438 L 604.675781 651.125 L 617.527344 655.917969 L 603.101562 661.578125 L 599.566406 655.917969 C 597.125 656.175781 595.390625 657.238281 594.355469 658.648438 C 593.71875 659.550781 593.300781 660.582031 593.167969 661.644531 C 593.011719 662.707031 593.140625 663.699219 593.457031 664.570312 C 593.910156 665.664062 594.777344 666.5625 596.09375 666.851562 C 596.449219 666.820312 596.835938 666.820312 597.222656 666.820312 L 606.375 666.917969 L 625.785156 666.785156 C 626.171875 665.886719 626.753906 665.050781 627.425781 664.375 C 628.773438 663.023438 630.671875 662.1875 632.761719 662.1875 C 634.8125 662.1875 636.714844 663.023438 638.058594 664.410156 C 638.289062 664.632812 638.480469 664.855469 638.671875 665.085938 C 639.285156 664.152344 640.117188 663.378906 641.214844 662.863281 L 641.339844 662.800781 C 638.351562 662.511719 630.992188 661.222656 624.886719 657.332031 C 615.566406 651.414062 607.472656 641.832031 609.140625 639.386719 C 610.523438 637.359375 620.003906 634.914062 628.90625 640.125 C 636.101562 644.339844 644.199219 655.785156 647.058594 660.066406 L 654.996094 656.273438 C 657.019531 655.304688 659.304688 655.53125 661.070312 656.625 C 720.808594 609.667969 693.878906 441.90625 557.597656 442.996094 C 560.039062 446.34375 561.9375 450.011719 563.289062 453.902344 C 565.953125 461.589844 566.496094 470.046875 565.117188 478.476562 C 563.800781 486.804688 560.652344 495.132812 555.925781 502.660156 C 544.742188 520.605469 524.789062 534.375 499.726562 533.765625 L 499.949219 524.144531 C 521.222656 524.65625 538.21875 512.890625 547.765625 497.582031 C 551.8125 491.082031 554.515625 484.007812 555.636719 476.960938 C 556.761719 470.046875 556.347656 463.195312 554.191406 457.054688 C 552.425781 451.972656 549.40625 447.308594 545.003906 443.480469 C 523.019531 445.21875 503.164062 452.484375 489.054688 464.355469 C 483.785156 468.792969 479.351562 473.875 475.882812 479.535156 C 453.0625 517.105469 488.027344 524.210938 488.125 524.242188 L 486.070312 533.667969 C 485.941406 533.632812 437.800781 523.789062 467.6875 474.550781 C 471.671875 467.988281 476.8125 462.105469 482.886719 457.023438 C 495.480469 446.378906 512.097656 439.109375 530.605469 435.695312 C 528.679688 435.085938 526.621094 434.539062 524.433594 434.125 C 510.007812 431.289062 495.867188 430.324219 482.113281 430.90625 C 467.554688 431.550781 453.386719 433.929688 439.796875 437.757812 C 244.257812 495.394531 226.035156 807.179688 429.316406 862.210938 C 506.855469 883.179688 566.726562 872.566406 609.171875 850.695312 C 604.355469 811.070312 614.507812 763.695312 643.523438 742.820312 C 646.578125 740.632812 649.824219 738.707031 653.230469 737.097656 Z M 631.890625 668.363281 C 633.335938 668.238281 634.785156 668.011719 636.164062 667.785156 C 636.003906 667.460938 635.78125 667.171875 635.527344 666.917969 C 634.8125 666.207031 633.851562 665.761719 632.726562 665.761719 C 631.667969 665.761719 630.671875 666.207031 629.964844 666.917969 C 629.222656 667.625 628.773438 668.625 628.773438 669.714844 C 628.773438 670.808594 629.222656 671.769531 629.929688 672.511719 C 630.640625 673.222656 631.636719 673.671875 632.726562 673.671875 C 633.820312 673.671875 634.8125 673.222656 635.527344 672.511719 C 635.683594 672.355469 635.847656 672.160156 635.972656 671.96875 C 634.621094 672.128906 633.273438 672.289062 631.890625 672.417969 L 631.890625 668.363281 " fill-opacity="1" fill-rule="nonzero"/></g><g clip-path="url(#157c0e49a0)"><path fill="#3498bf" d="M 391.269531 830.59375 C 391.269531 830.59375 328.644531 785.4375 326.9375 736.933594 C 325.238281 688.4375 334.039062 636.585938 359.394531 610.375 C 384.75 584.191406 420.867188 565.023438 461.675781 564.605469 C 502.488281 564.1875 535.875 581.394531 535.875 581.394531 C 535.875 581.394531 550.945312 596.960938 566.691406 596.960938 C 582.40625 596.960938 605.378906 595.257812 606.21875 602.042969 C 607.085938 608.863281 599.433594 609.730469 595.164062 613.109375 C 590.921875 616.515625 555.121094 646.75 555.121094 646.75 C 555.121094 646.75 556.054688 675.664062 557.757812 679.492188 C 559.464844 683.320312 577.007812 704.066406 577.007812 704.066406 C 577.007812 704.066406 567.332031 714.390625 555.863281 714.390625 C 544.359375 714.390625 525.464844 716.929688 522.058594 714.390625 C 518.652344 711.847656 509.71875 702.457031 509.71875 702.457031 C 509.71875 702.457031 479.285156 693.710938 446.382812 706.734375 C 413.472656 719.730469 386.867188 761.1875 394.9375 780.773438 C 403.035156 800.332031 414.503906 807.566406 414.503906 807.566406 C 414.503906 807.566406 433.621094 807.984375 451.488281 804.15625 C 469.328125 800.332031 480.21875 781.03125 504.191406 787.335938 C 528.195312 793.640625 534.394531 797.113281 534.394531 797.113281 C 534.394531 797.113281 491.882812 820.753906 478.257812 848.828125 C 464.667969 876.910156 461.808594 922.097656 461.808594 922.097656 C 461.808594 922.097656 438.316406 915.632812 419.164062 894.792969 C 400.042969 873.949219 391.269531 830.59375 391.269531 830.59375 " fill-opacity="1" fill-rule="evenodd"/></g><path fill="#9cdae4" d="M 441.273438 835.226562 C 406.566406 821.78125 378.929688 795.441406 364.308594 764.402344 C 348.886719 731.628906 347.953125 693.613281 368.582031 659.9375 C 384.75 633.53125 418.746094 611.40625 418.746094 611.40625 C 418.746094 611.40625 414.921875 630.988281 421.320312 649.292969 C 427.679688 667.59375 438.445312 680.457031 438.445312 680.457031 C 431.695312 650 437.066406 610.308594 453.609375 590.5625 L 469.328125 593.550781 C 462.578125 639.03125 501.84375 624.140625 505.183594 589.375 L 529.289062 596.09375 C 529.289062 596.09375 504.191406 650.578125 494.421875 654.820312 C 484.652344 659.070312 474.433594 662.058594 474.433594 662.058594 L 494.839844 677.785156 C 440.339844 672.355469 395.09375 718.605469 393.585938 770.449219 C 392.941406 791.808594 407.882812 802.773438 441.273438 835.226562 " fill-opacity="1" fill-rule="evenodd"/><path fill="#e85f0f" d="M 426.96875 823.742188 C 426.96875 823.742188 419.132812 838.214844 426.359375 864.816406 C 433.59375 891.414062 459.847656 914.925781 459.847656 914.925781 C 459.847656 914.925781 462.289062 862.691406 476.296875 843.109375 C 490.34375 823.519531 521.796875 800.363281 521.796875 800.363281 C 521.796875 800.363281 492.882812 799.078125 473.308594 804.796875 C 453.769531 810.554688 446.765625 809.078125 444.421875 808.433594 C 442.074219 807.792969 426.96875 823.742188 426.96875 823.742188 " fill-opacity="1" fill-rule="evenodd"/><path fill="#e85f0f" d="M 350.523438 606.964844 C 350.523438 606.964844 339.890625 586.765625 338.605469 574.609375 C 337.351562 562.449219 333.527344 559.296875 333.527344 559.296875 C 333.527344 559.296875 372.183594 550.773438 394.742188 553.769531 C 417.265625 556.730469 427.261719 556.984375 430.441406 560.585938 C 433.621094 564.15625 375.589844 592.492188 375.589844 592.492188 L 350.523438 606.964844 " fill-opacity="1" fill-rule="evenodd"/><path fill="#032d61" d="M 490.5 583.417969 C 495.035156 583.417969 497.410156 589.566406 495.800781 597.15625 C 494.226562 604.714844 489.28125 610.855469 484.746094 610.855469 C 480.21875 610.855469 477.84375 604.714844 479.445312 597.15625 C 481.019531 589.566406 485.972656 583.417969 490.5 583.417969 " fill-opacity="1" fill-rule="evenodd"/><g clip-path="url(#7289fe748b)"><path fill="#032d61" d="M 421.863281 561.773438 C 401.328125 566.730469 381.535156 575.574219 363.699219 588.246094 C 361.644531 589.726562 359.683594 591.207031 357.789062 592.71875 C 357.269531 591.71875 356.695312 590.628906 356.050781 589.5 C 348.175781 575.222656 337.351562 562.449219 337.351562 562.449219 C 337.351562 562.449219 354.574219 559.074219 380.058594 558.207031 C 395.226562 557.691406 411.320312 559.910156 421.863281 561.773438 Z M 419.390625 796.917969 C 419.390625 796.917969 431.277344 802.644531 450.429688 798.625 C 469.550781 794.570312 487.191406 786.691406 504.191406 787.335938 C 521.1875 787.980469 534.394531 797.113281 534.394531 797.113281 C 534.394531 797.113281 513.988281 792.449219 496.125 798.816406 C 478.257812 805.21875 456.597656 816.058594 439.375 811.8125 C 422.152344 807.566406 419.390625 796.917969 419.390625 796.917969 Z M 461.808594 922.097656 C 461.808594 922.097656 450.753906 889.773438 461.355469 858.703125 C 471.992188 827.667969 525.976562 804.671875 525.976562 804.671875 C 525.976562 804.671875 491.976562 827.21875 478.808594 857 C 465.632812 886.785156 461.808594 922.097656 461.808594 922.097656 Z M 557.664062 672.289062 C 556.667969 673.511719 556.085938 674.21875 556.085938 674.21875 C 558.851562 677.210938 568.714844 687.46875 573.183594 696.152344 C 573.183594 696.152344 581.824219 711.046875 572.992188 715.417969 C 564.1875 719.761719 537.511719 723.070312 525.589844 718.183594 C 513.707031 713.296875 490.054688 677.242188 485.617188 675.117188 C 485.390625 675.019531 485.199219 674.925781 484.976562 674.828125 C 473.117188 676.628906 461.164062 674.765625 461.164062 674.765625 L 465.824219 669.878906 C 465.824219 669.878906 485.808594 666.917969 496.445312 651.640625 C 507.082031 636.328125 525.976562 601.917969 542.140625 593.9375 C 542.273438 593.875 542.429688 593.78125 542.5625 593.714844 C 512.898438 577.214844 476.8125 567.242188 443.265625 574.511719 C 419.933594 611.628906 424.527344 651.734375 442.65625 690.007812 C 417.683594 672.738281 401.90625 609.988281 425.203125 580.273438 C 423.183594 581.140625 421.15625 582.070312 419.164062 583.101562 C 400.363281 592.78125 346.058594 620.988281 336.289062 697.152344 C 326.519531 773.28125 385.84375 819.820312 385.871094 819.820312 L 408.238281 828.921875 C 408.238281 828.921875 406.117188 852.753906 415.019531 874.878906 C 423.949219 897.011719 443.101562 914.894531 443.101562 914.894531 C 443.101562 914.894531 423.117188 911.066406 403.125 883.824219 C 391.335938 867.710938 386.480469 847.929688 384.523438 834.421875 C 337.738281 804.351562 305.988281 745.554688 312.089844 689.558594 C 315.082031 662.089844 321.507812 637.101562 336 616.132812 C 335.742188 608.445312 334.910156 596.769531 332.46875 584.582031 C 328.191406 563.546875 323.722656 549.488281 323.722656 549.488281 C 323.722656 549.488281 357.945312 542.898438 400.042969 545.886719 C 428.515625 547.882812 445.097656 553.703125 452.871094 557.242188 C 490.855469 555.246094 529.386719 565.925781 561.386719 589.566406 C 580.25 588.054688 603.839844 591.363281 610.8125 598.285156 C 625.113281 612.496094 578.871094 653.890625 557.664062 672.289062 Z M 509.140625 671.035156 C 526.203125 661.191406 550.722656 613.558594 560.875 608.898438 C 567.941406 605.613281 592.269531 605.804688 599.984375 609.1875 C 600.851562 606.996094 600.726562 605.679688 599.113281 604.648438 C 595.292969 602.238281 561.070312 600.019531 553.839844 604.519531 C 546.609375 609.054688 514.539062 657.589844 501.554688 668.332031 C 499.566406 669.972656 497.25 671.226562 494.777344 672.257812 C 497.152344 673.253906 499.59375 674.667969 501.976562 676.597656 C 513.445312 685.957031 525.589844 702.234375 539.636719 706.894531 C 540.050781 707.054688 540.503906 707.183594 540.953125 707.316406 C 532.503906 698.660156 521.929688 678.367188 509.140625 671.035156 Z M 400.363281 769.355469 C 401.105469 774.757812 402.648438 780.453125 405.34375 786.273438 C 419.390625 816.476562 462.738281 833.074219 462.738281 833.074219 C 462.738281 833.074219 455.957031 841.175781 434.683594 833.074219 C 413.445312 824.996094 387.511719 799.878906 390.46875 768.84375 C 391.144531 761.960938 392.398438 756.203125 393.90625 751.375 C 393.90625 751.375 401.523438 723.300781 428.320312 708.828125 C 455.089844 694.386719 491.660156 699.917969 491.660156 699.917969 C 491.660156 699.917969 451.488281 704.902344 424.496094 723.714844 C 398.375 741.953125 400.238281 767.714844 400.363281 769.355469 " fill-opacity="1" fill-rule="evenodd"/></g><path fill="#fefefe" d="M 500.367188 604.875 C 496.800781 617.324219 488.445312 626.9375 480.765625 626.9375 C 475.171875 626.9375 471.382812 621.886719 470.320312 614.363281 C 473.40625 617.835938 477.777344 619.507812 482.855469 618.675781 C 489.601562 617.515625 496.03125 612.175781 500.367188 604.875 " fill-opacity="1" fill-rule="evenodd"/><path fill="#fefefe" d="M 492.496094 593.714844 C 494.902344 593.714844 496.1875 596.992188 495.320312 601.011719 C 494.488281 605.070312 491.851562 608.347656 489.441406 608.347656 C 487.03125 608.347656 485.777344 605.070312 486.613281 601.011719 C 487.449219 596.992188 490.085938 593.714844 492.496094 593.714844 " fill-opacity="1" fill-rule="evenodd"/><path fill="#fefefe" d="M 352.546875 733.394531 C 343.101562 683.480469 369.289062 619.410156 404.03125 606.964844 L 403.609375 626.101562 C 365.5 650.160156 352.773438 687.273438 352.546875 733.394531 " fill-opacity="1" fill-rule="evenodd"/><path fill="#fefefe" d="M 418.105469 836.511719 C 415.566406 877.808594 436.738281 897.332031 452.742188 911.195312 C 434.296875 886.785156 432.046875 860.828125 438.507812 845.453125 L 418.105469 836.511719 " fill-opacity="1" fill-rule="evenodd"/><path fill="#e85f0f" d="M 375.332031 727.800781 C 375.332031 727.800781 400.621094 716.511719 405.507812 703.746094 C 410.421875 691.003906 413.765625 673.1875 413.765625 673.1875 L 406.148438 671.835938 C 406.148438 671.835938 397.246094 685.667969 394.484375 691.84375 C 391.722656 698.019531 388.152344 705.125 388.152344 705.125 C 388.152344 705.125 391.722656 689.722656 394.902344 682.480469 C 398.082031 675.246094 401.261719 670.582031 401.261719 670.582031 L 396.859375 667.460938 C 396.859375 667.460938 381.085938 688.660156 376.84375 697.597656 C 372.570312 706.507812 369.386719 723.105469 369.386719 723.105469 L 375.332031 727.800781 " fill-opacity="1" fill-rule="evenodd"/><path fill="#032d61" d="M 395.0625 667.238281 C 395.0625 667.238281 373.371094 689.59375 363.796875 713.617188 C 354.253906 737.675781 355.085938 742.980469 355.085938 742.980469 C 355.085938 742.980469 388.894531 734.265625 403.355469 722.558594 C 417.816406 710.851562 420.769531 707.023438 421.1875 702.96875 C 421.636719 698.949219 413.765625 673.1875 413.765625 673.1875 C 405.953125 690.523438 396.925781 713.136719 376.363281 719.375 C 376.363281 719.375 375.300781 707.894531 383.59375 691.488281 C 391.878906 675.117188 398.664062 667.65625 398.664062 667.65625 L 395.0625 667.238281 " fill-opacity="1" fill-rule="evenodd"/><g clip-path="url(#a55f71807b)"><path fill="#f9fbff" d="M 509.382812 1026.886719 C 300.136719 1026.886719 130.632812 856.21875 130.632812 648.136719 C 130.632812 440.058594 300.136719 269.386719 509.382812 269.386719 C 718.632812 269.386719 888.132812 438.890625 888.132812 648.136719 C 888.132812 857.386719 717.460938 1026.886719 509.382812 1026.886719 Z M 509.382812 292.769531 C 312.996094 292.769531 154.011719 451.75 154.011719 648.136719 C 154.011719 844.527344 312.996094 1003.507812 509.382812 1003.507812 C 705.773438 1003.507812 864.753906 844.527344 864.753906 648.136719 C 864.753906 451.75 704.601562 292.769531 509.382812 292.769531 Z M 509.382812 292.769531 " fill-opacity="1" fill-rule="nonzero"/></g><g fill="#f9fbff" fill-opacity="1"><g transform="translate(230.443485, 660.283395)"><g><path d="M 5.28125 -29.53125 C 4.5 -23.09375 3.078125 -17.125 1.015625 -11.625 C -1.035156 -6.132812 -3.414062 -1.679688 -6.125 1.734375 L -23.46875 -10.140625 C -17.894531 -17.585938 -14.585938 -25.664062 -13.546875 -34.375 C -13.160156 -37.5625 -13.253906 -40.050781 -13.828125 -41.84375 C -14.398438 -43.632812 -15.359375 -44.609375 -16.703125 -44.765625 C -17.972656 -44.921875 -19.101562 -44.175781 -20.09375 -42.53125 C -21.082031 -40.894531 -22.257812 -38.257812 -23.625 -34.625 C -25.5 -29.8125 -27.285156 -25.851562 -28.984375 -22.75 C -30.691406 -19.65625 -33.054688 -17.050781 -36.078125 -14.9375 C -39.097656 -12.820312 -42.835938 -12.035156 -47.296875 -12.578125 C -52.890625 -13.242188 -57.609375 -15.332031 -61.453125 -18.84375 C -65.296875 -22.363281 -68.03125 -27.09375 -69.65625 -33.03125 C -71.28125 -38.96875 -71.628906 -45.796875 -70.703125 -53.515625 C -70.035156 -59.035156 -68.867188 -64.117188 -67.203125 -68.765625 C -65.535156 -73.410156 -63.460938 -77.347656 -60.984375 -80.578125 L -43.796875 -69.359375 C -45.992188 -66.671875 -47.765625 -63.628906 -49.109375 -60.234375 C -50.453125 -56.835938 -51.34375 -53.300781 -51.78125 -49.625 C -52.195312 -46.15625 -52.019531 -43.40625 -51.25 -41.375 C -50.488281 -39.34375 -49.4375 -38.25 -48.09375 -38.09375 C -46.75 -37.925781 -45.582031 -38.664062 -44.59375 -40.3125 C -43.613281 -41.957031 -42.429688 -44.703125 -41.046875 -48.546875 C -39.328125 -53.234375 -37.628906 -57.144531 -35.953125 -60.28125 C -34.285156 -63.414062 -31.960938 -66.023438 -28.984375 -68.109375 C -26.003906 -70.191406 -22.320312 -70.972656 -17.9375 -70.453125 C -12.414062 -69.785156 -7.75 -67.675781 -3.9375 -64.125 C -0.125 -60.582031 2.59375 -55.84375 4.21875 -49.90625 C 5.84375 -43.96875 6.195312 -37.175781 5.28125 -29.53125 Z M 5.28125 -29.53125 "/></g></g></g><g fill="#f9fbff" fill-opacity="1"><g transform="translate(237.522811, 589.575296)"><g><path d="M 18.6875 -38.0625 C 15.601562 -31.070312 11.613281 -25.519531 6.71875 -21.40625 C 1.820312 -17.289062 -3.5625 -14.835938 -9.4375 -14.046875 C -15.320312 -13.265625 -21.269531 -14.195312 -27.28125 -16.84375 C -35.238281 -20.363281 -41.515625 -25.335938 -46.109375 -31.765625 C -50.710938 -38.203125 -53.296875 -45.460938 -53.859375 -53.546875 C -54.421875 -61.628906 -52.875 -69.8125 -49.21875 -78.09375 C -46.132812 -85.070312 -42.144531 -90.613281 -37.25 -94.71875 C -32.351562 -98.832031 -26.960938 -101.285156 -21.078125 -102.078125 C -15.203125 -102.878906 -9.269531 -101.957031 -3.28125 -99.3125 C 4.6875 -95.789062 10.972656 -90.8125 15.578125 -84.375 C 20.179688 -77.945312 22.765625 -70.691406 23.328125 -62.609375 C 23.890625 -54.523438 22.34375 -46.34375 18.6875 -38.0625 Z M 0.859375 -48.265625 C 2.460938 -51.921875 2.914062 -55.515625 2.21875 -59.046875 C 1.53125 -62.585938 -0.09375 -65.78125 -2.65625 -68.625 C -5.226562 -71.476562 -8.40625 -73.742188 -12.1875 -75.421875 C -16.226562 -77.203125 -19.984375 -77.429688 -23.453125 -76.109375 C -26.921875 -74.796875 -29.578125 -72.050781 -31.421875 -67.875 C -33.023438 -64.226562 -33.476562 -60.632812 -32.78125 -57.09375 C -32.09375 -53.5625 -30.460938 -50.367188 -27.890625 -47.515625 C -25.328125 -44.660156 -22.15625 -42.398438 -18.375 -40.734375 C -14.320312 -38.941406 -10.566406 -38.703125 -7.109375 -40.015625 C -3.648438 -41.335938 -0.992188 -44.085938 0.859375 -48.265625 Z M 0.859375 -48.265625 "/></g></g></g><g fill="#f9fbff" fill-opacity="1"><g transform="translate(272.838818, 506.8063)"><g><path d="M 18.421875 -127.484375 L 62.28125 -65.03125 L 46.390625 -48.421875 L 26.328125 -76.828125 L 31.546875 -42.65625 L 23.84375 -34.625 L -3.609375 -44.921875 L 16.046875 -16.75 L 0.15625 -0.15625 L -43.578125 -62.765625 L -29.375 -77.59375 L 10.625 -61.8125 L 3.546875 -111.96875 Z M 18.421875 -127.484375 "/></g></g></g><g fill="#f9fbff" fill-opacity="1"><g transform="translate(343.648038, 434.618203)"><g><path d="M 43.0625 -36.265625 L 17.546875 -23.4375 L 16.71875 -8.40625 L -7.078125 3.5625 L 1.875 -84.765625 L 24.046875 -95.921875 L 73.5625 -37.015625 L 51.109375 -25.71875 Z M 31.71875 -50.9375 L 19.875 -66.390625 L 18.625 -44.34375 Z M 31.71875 -50.9375 "/></g></g></g><g fill="#f9fbff" fill-opacity="1"><g transform="translate(420.689703, 395.870247)"><g><path d="M 76.65625 -87.453125 L 73.171875 -11.171875 L 52.65625 -8.046875 L 26.140625 -39.25 L 24.53125 -3.75 L 0.21875 -0.03125 L 3.703125 -76.3125 L 24.21875 -79.4375 L 50.734375 -48.21875 L 52.34375 -83.734375 Z M 76.65625 -87.453125 "/></g></g></g><g fill="#f9fbff" fill-opacity="1"><g transform="translate(508.555994, 385.826763)"><g/></g></g><g fill="#f9fbff" fill-opacity="1"><g transform="translate(544.065595, 386.284)"><g><path d="M 67.90625 -57.8125 C 77.46875 -54.945312 84.253906 -50.640625 88.265625 -44.890625 C 92.273438 -39.140625 93.148438 -32.507812 90.890625 -25 C 89.097656 -19 86.03125 -14.15625 81.6875 -10.46875 C 77.34375 -6.78125 72.039062 -4.492188 65.78125 -3.609375 C 59.53125 -2.722656 52.785156 -3.367188 45.546875 -5.546875 L 33.15625 -9.25 L 24.375 7.3125 L 0.203125 0.0625 L 36.046875 -67.359375 Z M 52.359375 -23.828125 C 55.710938 -22.828125 58.5625 -22.890625 60.90625 -24.015625 C 63.25 -25.140625 64.867188 -27.203125 65.765625 -30.203125 C 67.222656 -35.054688 64.945312 -38.382812 58.9375 -40.1875 L 50.84375 -42.609375 L 42.421875 -26.8125 Z M 52.359375 -23.828125 "/></g></g></g><g fill="#f9fbff" fill-opacity="1"><g transform="translate(620.911441, 410.003162)"><g><path d="M 60.625 -27.359375 L 54.4375 -20.921875 L 81.046875 -3.78125 L 68.140625 9.53125 L 41.4375 -7.65625 L 34.484375 -0.421875 L 66.046875 19.90625 L 52.515625 33.8125 L 0.1875 0.125 L 53.296875 -54.734375 L 104.46875 -21.78125 L 90.90625 -7.859375 Z M 91.140625 -37.625 L 89.03125 -48.765625 L 76.03125 -47.34375 L 63.078125 -55.6875 L 86.015625 -61.265625 L 103.28125 -50.15625 L 103.359375 -29.75 Z M 91.140625 -37.625 "/></g></g></g><g fill="#f9fbff" fill-opacity="1"><g transform="translate(682.562593, 449.239555)"><g><path d="M 26.84375 33.359375 C 21.820312 27.609375 18.460938 21.617188 16.765625 15.390625 C 15.066406 9.160156 15.082031 3.1875 16.8125 -2.53125 C 18.539062 -8.25 21.878906 -13.265625 26.828125 -17.578125 C 33.378906 -23.296875 40.53125 -26.867188 48.28125 -28.296875 C 56.03125 -29.722656 63.695312 -28.988281 71.28125 -26.09375 C 78.863281 -23.195312 85.65625 -18.3125 91.65625 -11.4375 C 96.382812 -6.019531 99.597656 -0.359375 101.296875 5.546875 C 103.003906 11.453125 102.945312 16.992188 101.125 22.171875 L 78.453125 17.828125 C 80.660156 11.460938 79.582031 5.78125 75.21875 0.78125 C 72.644531 -2.164062 69.625 -4.160156 66.15625 -5.203125 C 62.6875 -6.253906 59.085938 -6.285156 55.359375 -5.296875 C 51.628906 -4.304688 48.097656 -2.363281 44.765625 0.53125 C 41.429688 3.445312 39.6875 6.84375 39.53125 10.71875 C 39.375 14.59375 40.816406 18.273438 43.859375 21.765625 C 48.035156 26.554688 53.863281 28.851562 61.34375 28.65625 L 60.40625 49.203125 C 53.519531 49.441406 47.398438 48.226562 42.046875 45.5625 C 36.691406 42.90625 31.625 38.835938 26.84375 33.359375 Z M 26.84375 33.359375 "/></g></g></g><g fill="#f9fbff" fill-opacity="1"><g transform="translate(735.481971, 509.23433)"><g><path d="M 104.34375 51.359375 L 29.765625 67.765625 L 19.609375 44.65625 L 47.109375 38.65625 L 37.734375 17.296875 L 10.234375 23.3125 L 0.09375 0.203125 L 74.671875 -16.203125 L 84.8125 6.90625 L 58.375 12.6875 L 67.75 34.03125 L 94.1875 28.265625 Z M 104.34375 51.359375 "/></g></g></g><g fill="#f9fbff" fill-opacity="1"><g transform="translate(769.275381, 588.915588)"><g><path d="M 59.8125 29.078125 L 50.90625 28.453125 L 54.765625 59.859375 L 36.265625 58.46875 L 32.40625 26.953125 L 22.40625 26.21875 L 26.984375 63.484375 L 7.609375 61.984375 L 0.03125 0.21875 L 76.171875 5.953125 L 83.59375 66.359375 L 64.203125 64.828125 Z M 59.8125 29.078125 "/></g></g></g><g fill="#f9fbff" fill-opacity="1"><g transform="translate(168.560488, 706.375033)"><g><path d="M 46.015625 12.453125 C 47.191406 17.609375 46.875 21.878906 45.0625 25.265625 C 43.257812 28.660156 40.128906 30.863281 35.671875 31.875 C 31.015625 32.9375 27.085938 32.335938 23.890625 30.078125 C 20.691406 27.828125 18.503906 24.125 17.328125 18.96875 L 15.1875 9.515625 L 2.796875 12.328125 L 1.21875 5.390625 L 42.296875 -3.9375 Z M 23.484375 17.25 C 24.210938 20.457031 25.460938 22.753906 27.234375 24.140625 C 29.003906 25.523438 31.257812 25.910156 34 25.296875 C 36.664062 24.691406 38.46875 23.382812 39.40625 21.375 C 40.34375 19.375 40.445312 16.769531 39.71875 13.5625 L 37.640625 4.421875 L 21.40625 8.109375 Z M 23.484375 17.25 "/></g></g></g><g fill="#f9fbff" fill-opacity="1"><g transform="translate(180.898591, 757.08674)"><g><path d="M 15 37.421875 L 12 29.9375 L 20.96875 18.03125 C 20.800781 17.675781 20.550781 17.085938 20.21875 16.265625 L 16.5 7 L 4.703125 11.734375 L 2.0625 5.140625 L 41.15625 -10.546875 L 47.515625 5.3125 C 49.515625 10.300781 49.898438 14.640625 48.671875 18.328125 C 47.453125 22.023438 44.71875 24.722656 40.46875 26.421875 C 37.351562 27.671875 34.4375 28.03125 31.71875 27.5 C 29 26.976562 26.613281 25.617188 24.5625 23.421875 Z M 22.40625 4.625 L 26.125 13.890625 C 27.351562 16.941406 28.957031 19.023438 30.9375 20.140625 C 32.914062 21.253906 35.207031 21.285156 37.8125 20.234375 C 40.34375 19.222656 41.910156 17.644531 42.515625 15.5 C 43.128906 13.351562 42.820312 10.753906 41.59375 7.703125 L 37.875 -1.5625 Z M 22.40625 4.625 "/></g></g></g><g fill="#f9fbff" fill-opacity="1"><g transform="translate(202.277612, 808.232706)"><g><path d="M 49.0625 -1.609375 C 51.226562 1.898438 52.398438 5.597656 52.578125 9.484375 C 52.765625 13.378906 51.972656 17.023438 50.203125 20.421875 C 48.429688 23.816406 45.859375 26.554688 42.484375 28.640625 C 39.066406 30.742188 35.441406 31.820312 31.609375 31.875 C 27.773438 31.9375 24.144531 31.019531 20.71875 29.125 C 17.289062 27.238281 14.492188 24.539062 12.328125 21.03125 C 10.148438 17.507812 8.988281 13.789062 8.84375 9.875 C 8.695312 5.957031 9.507812 2.300781 11.28125 -1.09375 C 13.050781 -4.488281 15.644531 -7.238281 19.0625 -9.34375 C 22.4375 -11.425781 26.039062 -12.492188 29.875 -12.546875 C 33.707031 -12.609375 37.316406 -11.679688 40.703125 -9.765625 C 44.097656 -7.847656 46.882812 -5.128906 49.0625 -1.609375 Z M 43.609375 1.8125 C 42.171875 -0.507812 40.269531 -2.304688 37.90625 -3.578125 C 35.539062 -4.847656 33.023438 -5.460938 30.359375 -5.421875 C 27.691406 -5.390625 25.1875 -4.648438 22.84375 -3.203125 C 20.476562 -1.742188 18.671875 0.179688 17.421875 2.578125 C 16.171875 4.984375 15.566406 7.523438 15.609375 10.203125 C 15.660156 12.878906 16.40625 15.378906 17.84375 17.703125 C 19.269531 20.015625 21.160156 21.785156 23.515625 23.015625 C 25.878906 24.253906 28.40625 24.832031 31.09375 24.75 C 33.78125 24.675781 36.304688 23.910156 38.671875 22.453125 C 41.015625 21.003906 42.804688 19.109375 44.046875 16.765625 C 45.285156 14.421875 45.878906 11.921875 45.828125 9.265625 C 45.773438 6.609375 45.035156 4.125 43.609375 1.8125 Z M 43.609375 1.8125 "/></g></g></g><g fill="#f9fbff" fill-opacity="1"><g transform="translate(235.209722, 858.839064)"><g><path d="M 3.609375 4.1875 L 35.5625 -23.265625 L 53.984375 -1.8125 L 49.109375 2.3125 L 35.34375 -13.6875 L 26.125 -5.78125 L 38.59375 8.71875 L 33.796875 12.84375 L 21.328125 -1.65625 L 8.234375 9.59375 Z M 3.609375 4.1875 "/></g></g></g><g fill="#f9fbff" fill-opacity="1"><g transform="translate(265.689128, 893.334403)"><g><path d="M 4.171875 3.640625 L 31.890625 -28.078125 L 54.546875 -8.28125 L 50.34375 -3.46875 L 33.03125 -18.59375 L 25.515625 -10 L 41.015625 3.546875 L 36.84375 8.3125 L 21.34375 -5.234375 L 13.703125 3.515625 L 31.5625 19.109375 L 27.375 23.90625 Z M 4.171875 3.640625 "/></g></g></g><g fill="#f9fbff" fill-opacity="1"><g transform="translate(304.671823, 926.162498)"><g><path d="M 43.5625 -10.15625 C 42.457031 -12.4375 41.164062 -14.429688 39.6875 -16.140625 C 38.207031 -17.847656 36.738281 -19.171875 35.28125 -20.109375 C 33.53125 -21.234375 31.921875 -21.800781 30.453125 -21.8125 C 28.984375 -21.832031 27.859375 -21.234375 27.078125 -20.015625 C 26.390625 -18.929688 26.148438 -17.816406 26.359375 -16.671875 C 26.578125 -15.535156 27.0625 -14.441406 27.8125 -13.390625 C 28.570312 -12.335938 29.679688 -10.9375 31.140625 -9.1875 C 33.054688 -6.894531 34.546875 -4.921875 35.609375 -3.265625 C 36.671875 -1.609375 37.289062 0.238281 37.46875 2.28125 C 37.644531 4.320312 37.019531 6.460938 35.59375 8.703125 C 34.25 10.785156 32.507812 12.25 30.375 13.09375 C 28.238281 13.9375 25.882812 14.128906 23.3125 13.671875 C 20.75 13.222656 18.164062 12.164062 15.5625 10.5 C 12.832031 8.75 10.523438 6.550781 8.640625 3.90625 C 6.765625 1.269531 5.457031 -1.519531 4.71875 -4.46875 L 10.640625 -7.984375 C 11.359375 -5.171875 12.488281 -2.613281 14.03125 -0.3125 C 15.582031 1.988281 17.316406 3.753906 19.234375 4.984375 C 21.296875 6.304688 23.171875 6.953125 24.859375 6.921875 C 26.554688 6.890625 27.851562 6.179688 28.75 4.796875 C 29.457031 3.679688 29.691406 2.546875 29.453125 1.390625 C 29.210938 0.242188 28.707031 -0.875 27.9375 -1.96875 C 27.164062 -3.070312 26.0625 -4.46875 24.625 -6.15625 C 22.632812 -8.414062 21.125 -10.351562 20.09375 -11.96875 C 19.070312 -13.582031 18.457031 -15.410156 18.25 -17.453125 C 18.050781 -19.492188 18.660156 -21.613281 20.078125 -23.8125 C 21.347656 -25.800781 23.003906 -27.195312 25.046875 -28 C 27.085938 -28.8125 29.351562 -29 31.84375 -28.5625 C 34.332031 -28.132812 36.84375 -27.109375 39.375 -25.484375 C 41.601562 -24.054688 43.582031 -22.3125 45.3125 -20.25 C 47.039062 -18.1875 48.410156 -16.039062 49.421875 -13.8125 Z M 43.5625 -10.15625 "/></g></g></g><g fill="#f9fbff" fill-opacity="1"><g transform="translate(346.233924, 951.866382)"><g><path d="M 41.640625 -16.3125 C 40.222656 -18.414062 38.660156 -20.207031 36.953125 -21.6875 C 35.242188 -23.164062 33.601562 -24.257812 32.03125 -24.96875 C 30.132812 -25.832031 28.457031 -26.164062 27 -25.96875 C 25.539062 -25.769531 24.507812 -25.007812 23.90625 -23.6875 C 23.375 -22.53125 23.300781 -21.398438 23.6875 -20.296875 C 24.070312 -19.191406 24.710938 -18.171875 25.609375 -17.234375 C 26.503906 -16.304688 27.796875 -15.082031 29.484375 -13.5625 C 31.722656 -11.570312 33.484375 -9.832031 34.765625 -8.34375 C 36.054688 -6.863281 36.9375 -5.125 37.40625 -3.125 C 37.882812 -1.125 37.570312 1.082031 36.46875 3.5 C 35.445312 5.757812 33.9375 7.457031 31.9375 8.59375 C 29.945312 9.738281 27.648438 10.269531 25.046875 10.1875 C 22.441406 10.113281 19.734375 9.4375 16.921875 8.15625 C 13.960938 6.8125 11.359375 4.96875 9.109375 2.625 C 6.867188 0.28125 5.175781 -2.296875 4.03125 -5.109375 L 9.375 -9.421875 C 10.5 -6.753906 11.988281 -4.390625 13.84375 -2.328125 C 15.707031 -0.265625 17.679688 1.234375 19.765625 2.171875 C 21.992188 3.179688 23.941406 3.546875 25.609375 3.265625 C 27.273438 2.992188 28.453125 2.109375 29.140625 0.609375 C 29.679688 -0.597656 29.753906 -1.75 29.359375 -2.84375 C 28.960938 -3.945312 28.300781 -4.988281 27.375 -5.96875 C 26.445312 -6.945312 25.144531 -8.160156 23.46875 -9.609375 C 21.195312 -11.578125 19.429688 -13.285156 18.171875 -14.734375 C 16.910156 -16.191406 16.035156 -17.910156 15.546875 -19.890625 C 15.066406 -21.867188 15.367188 -24.050781 16.453125 -26.4375 C 17.429688 -28.59375 18.867188 -30.21875 20.765625 -31.3125 C 22.671875 -32.40625 24.882812 -32.914062 27.40625 -32.84375 C 29.9375 -32.78125 32.570312 -32.125 35.3125 -30.875 C 37.71875 -29.78125 39.925781 -28.335938 41.9375 -26.546875 C 43.945312 -24.753906 45.609375 -22.828125 46.921875 -20.765625 Z M 41.640625 -16.3125 "/></g></g></g><g fill="#f9fbff" fill-opacity="1"><g transform="translate(390.704935, 970.794688)"><g><path d="M 5.265625 1.703125 L 18.203125 -38.390625 L 24.96875 -36.203125 L 12.03125 3.890625 Z M 5.265625 1.703125 "/></g></g></g><g fill="#f9fbff" fill-opacity="1"><g transform="translate(418.658854, 980.096151)"><g><path d="M 31.640625 -37.546875 C 35.691406 -36.804688 39.226562 -35.203125 42.25 -32.734375 C 45.269531 -30.265625 47.445312 -27.234375 48.78125 -23.640625 C 50.113281 -20.054688 50.425781 -16.3125 49.71875 -12.40625 C 49 -8.457031 47.378906 -5.039062 44.859375 -2.15625 C 42.335938 0.726562 39.222656 2.8125 35.515625 4.09375 C 31.816406 5.375 27.941406 5.644531 23.890625 4.90625 C 19.816406 4.164062 16.273438 2.539062 13.265625 0.03125 C 10.253906 -2.476562 8.078125 -5.523438 6.734375 -9.109375 C 5.398438 -12.691406 5.09375 -16.457031 5.8125 -20.40625 C 6.519531 -24.3125 8.132812 -27.707031 10.65625 -30.59375 C 13.1875 -33.488281 16.296875 -35.554688 19.984375 -36.796875 C 23.679688 -38.035156 27.566406 -38.285156 31.640625 -37.546875 Z M 30.53125 -31.171875 C 27.84375 -31.660156 25.234375 -31.453125 22.703125 -30.546875 C 20.171875 -29.648438 18.023438 -28.203125 16.265625 -26.203125 C 14.515625 -24.203125 13.394531 -21.84375 12.90625 -19.125 C 12.40625 -16.394531 12.628906 -13.757812 13.578125 -11.21875 C 14.523438 -8.6875 16.007812 -6.539062 18.03125 -4.78125 C 20.0625 -3.019531 22.421875 -1.894531 25.109375 -1.40625 C 27.773438 -0.914062 30.351562 -1.132812 32.84375 -2.0625 C 35.34375 -3 37.460938 -4.488281 39.203125 -6.53125 C 40.941406 -8.582031 42.0625 -10.972656 42.5625 -13.703125 C 43.050781 -16.421875 42.835938 -19.023438 41.921875 -21.515625 C 41.015625 -24.003906 39.554688 -26.113281 37.546875 -27.84375 C 35.535156 -29.570312 33.195312 -30.679688 30.53125 -31.171875 Z M 30.53125 -31.171875 "/></g></g></g><g fill="#f9fbff" fill-opacity="1"><g transform="translate(478.631785, 989.908679)"><g><path d="M 35.109375 -11.5625 L 35.203125 -42.015625 L 42.1875 -42 L 42.0625 0.125 L 35.078125 0.109375 L 12.734375 -30.296875 L 12.640625 0.03125 L 5.53125 0.015625 L 5.65625 -42.109375 L 12.640625 -42.09375 Z M 35.109375 -11.5625 "/></g></g></g><g fill="#f9fbff" fill-opacity="1"><g transform="translate(538.183775, 988.930516)"><g><path d="M 43.71875 -7.40625 L 36.25 -6.140625 L 30.6875 -14.828125 L 9.75 -11.28125 L 7.359375 -1.25 L 0.0625 -0.015625 L 11.359375 -44.640625 L 18.546875 -45.859375 Z M 16 -37.734375 L 11.296875 -17.96875 L 26.96875 -20.625 Z M 16 -37.734375 "/></g></g></g><g fill="#f9fbff" fill-opacity="1"><g transform="translate(593.03684, 978.328935)"><g><path d="M 5.265625 -1.71875 L -7.765625 -41.78125 L -1.015625 -43.96875 L 10.03125 -10.03125 L 27.375 -15.671875 L 29.359375 -9.546875 Z M 5.265625 -1.71875 "/></g></g></g><g fill="#f9fbff" fill-opacity="1"><g transform="translate(633.479041, 964.155181)"><g/></g></g><g fill="#f9fbff" fill-opacity="1"><g transform="translate(658.188057, 953.100531)"><g><path d="M 4.78125 -2.765625 L -16.3125 -39.234375 L 8.171875 -53.40625 L 11.328125 -47.84375 L -6.953125 -37.265625 L -0.875 -26.75 L 15.6875 -36.328125 L 18.859375 -30.84375 L 2.296875 -21.265625 L 10.9375 -6.328125 Z M 4.78125 -2.765625 "/></g></g></g><g fill="#f9fbff" fill-opacity="1"><g transform="translate(696.976894, 929.441254)"><g><path d="M 4.453125 -3.28125 L -20.515625 -37.203125 L -14.78125 -41.40625 L 10.1875 -7.484375 Z M 4.453125 -3.28125 "/></g></g></g><g fill="#f9fbff" fill-opacity="1"><g transform="translate(720.393033, 912.124434)"><g><path d="M 1.015625 -44.71875 C -1.484375 -44.207031 -3.742188 -43.445312 -5.765625 -42.4375 C -7.796875 -41.4375 -9.441406 -40.347656 -10.703125 -39.171875 C -12.234375 -37.753906 -13.1875 -36.332031 -13.5625 -34.90625 C -13.9375 -33.488281 -13.632812 -32.25 -12.65625 -31.1875 C -11.78125 -30.25 -10.757812 -29.742188 -9.59375 -29.671875 C -8.4375 -29.609375 -7.253906 -29.804688 -6.046875 -30.265625 C -4.835938 -30.734375 -3.203125 -31.457031 -1.140625 -32.4375 C 1.546875 -33.726562 3.820312 -34.679688 5.6875 -35.296875 C 7.550781 -35.921875 9.5 -36.066406 11.53125 -35.734375 C 13.5625 -35.398438 15.476562 -34.257812 17.28125 -32.3125 C 18.96875 -30.5 19.953125 -28.453125 20.234375 -26.171875 C 20.523438 -23.890625 20.128906 -21.5625 19.046875 -19.1875 C 17.960938 -16.8125 16.296875 -14.570312 14.046875 -12.46875 C 11.660156 -10.257812 8.957031 -8.566406 5.9375 -7.390625 C 2.914062 -6.222656 -0.113281 -5.65625 -3.15625 -5.6875 L -5.0625 -12.28125 C -2.175781 -12.28125 0.570312 -12.742188 3.1875 -13.671875 C 5.800781 -14.609375 7.945312 -15.851562 9.625 -17.40625 C 11.414062 -19.070312 12.503906 -20.726562 12.890625 -22.375 C 13.285156 -24.019531 12.921875 -25.445312 11.796875 -26.65625 C 10.898438 -27.625 9.863281 -28.132812 8.6875 -28.1875 C 7.507812 -28.238281 6.289062 -28.023438 5.03125 -27.546875 C 3.78125 -27.066406 2.15625 -26.34375 0.15625 -25.375 C -2.53125 -24.019531 -4.78125 -23.039062 -6.59375 -22.4375 C -8.414062 -21.84375 -10.335938 -21.703125 -12.359375 -22.015625 C -14.378906 -22.335938 -16.28125 -23.457031 -18.0625 -25.375 C -19.664062 -27.101562 -20.609375 -29.054688 -20.890625 -31.234375 C -21.171875 -33.410156 -20.789062 -35.648438 -19.75 -37.953125 C -18.707031 -40.253906 -17.085938 -42.429688 -14.890625 -44.484375 C -12.941406 -46.285156 -10.753906 -47.765625 -8.328125 -48.921875 C -5.898438 -50.078125 -3.488281 -50.875 -1.09375 -51.3125 Z M 1.015625 -44.71875 "/></g></g></g><g fill="#f9fbff" fill-opacity="1"><g transform="translate(756.049161, 878.257976)"><g><path d="M 3.40625 -4.359375 L -29.8125 -30.265625 L -25.453125 -35.875 L -11.03125 -24.625 L 2.6875 -42.21875 L -11.734375 -53.46875 L -7.359375 -59.078125 L 25.859375 -33.171875 L 21.484375 -27.5625 L 7.71875 -38.296875 L -6 -20.703125 L 7.765625 -9.96875 Z M 3.40625 -4.359375 "/></g></g></g><g fill="#f9fbff" fill-opacity="1"><g transform="translate(790.831748, 830.914453)"><g><path d="M 2.8125 -4.765625 L -33.484375 -26.140625 L -29.875 -32.265625 L 6.421875 -10.890625 Z M 2.8125 -4.765625 "/></g></g></g><g fill="#f9fbff" fill-opacity="1"><g transform="translate(805.964409, 805.679225)"><g><path d="M 3 -36.84375 L -25.03125 -48.765625 L -22.3125 -55.1875 L 16.453125 -38.703125 L 13.734375 -32.28125 L -22.953125 -23.5 L 4.953125 -11.625 L 2.171875 -5.09375 L -36.59375 -21.578125 L -33.875 -28 Z M 3 -36.84375 "/></g></g></g><g fill="#f9fbff" fill-opacity="1"><g transform="translate(828.230935, 750.416658)"><g><path d="M -12.3125 -38.171875 L -10.90625 -44.203125 L 4.375 -40.625 C 5.488281 -38.144531 6.207031 -35.351562 6.53125 -32.25 C 6.863281 -29.144531 6.703125 -26.203125 6.046875 -23.421875 C 5.117188 -19.441406 3.328125 -16.019531 0.671875 -13.15625 C -1.972656 -10.289062 -5.117188 -8.289062 -8.765625 -7.15625 C -12.410156 -6.019531 -16.1875 -5.90625 -20.09375 -6.8125 C -23.957031 -7.71875 -27.265625 -9.507812 -30.015625 -12.1875 C -32.773438 -14.875 -34.675781 -18.113281 -35.71875 -21.90625 C -36.769531 -25.695312 -36.820312 -29.617188 -35.875 -33.671875 C -35.195312 -36.566406 -34.003906 -39.285156 -32.296875 -41.828125 C -30.585938 -44.378906 -28.585938 -46.457031 -26.296875 -48.0625 L -22.1875 -42.96875 C -24.050781 -41.707031 -25.632812 -40.140625 -26.9375 -38.265625 C -28.238281 -36.390625 -29.144531 -34.375 -29.65625 -32.21875 C -30.289062 -29.488281 -30.222656 -26.828125 -29.453125 -24.234375 C -28.679688 -21.640625 -27.328125 -19.414062 -25.390625 -17.5625 C -23.453125 -15.707031 -21.140625 -14.460938 -18.453125 -13.828125 C -15.710938 -13.191406 -13.050781 -13.269531 -10.46875 -14.0625 C -7.894531 -14.863281 -5.679688 -16.257812 -3.828125 -18.25 C -1.984375 -20.25 -0.742188 -22.617188 -0.109375 -25.359375 C 0.253906 -26.878906 0.367188 -28.519531 0.234375 -30.28125 C 0.109375 -32.050781 -0.222656 -33.78125 -0.765625 -35.46875 Z M -12.3125 -38.171875 "/></g></g></g></svg>